HIERARCHY
ROOT Pelvis
{
	OFFSET 0.000000 0.941512 0.000000
	CHANNELS 6 Xposition Yposition Zposition Zrotation Yrotation Xrotation 
	JOINT Pelvis_L_Hip
	{
		OFFSET 0.000000 0.000000 0.000000
		CHANNELS 3 Zrotation Yrotation Xrotation
		JOINT L_Hip
		{
			OFFSET 0.062321 -0.080322 -0.016990
			CHANNELS 3 Zrotation Yrotation Xrotation
			JOINT L_Knee
			{
				OFFSET 0.093051 -0.381305 -0.029784
				CHANNELS 3 Zrotation Yrotation Xrotation
				JOINT L_Ankle
				{
					OFFSET -0.010371 -0.431000 -0.033614
					CHANNELS 3 Zrotation Yrotation Xrotation
					End Site #name: L_Foot
					{
						OFFSET 0.069299 -0.038670 0.119418
					}
				}
			}
		}
	}
	JOINT Pelvis_R_Hip
	{
		OFFSET 0.000000 0.000000 0.000000
		CHANNELS 3 Zrotation Yrotation Xrotation
		JOINT R_Hip
		{
			OFFSET -0.055334 -0.094904 -0.002373
			CHANNELS 3 Zrotation Yrotation Xrotation
			JOINT R_Knee
			{
				OFFSET -0.064207 -0.384370 -0.019592
				CHANNELS 3 Zrotation Yrotation Xrotation
				JOINT R_Ankle
				{
					OFFSET 0.025418 -0.419734 -0.065953
					CHANNELS 3 Zrotation Yrotation Xrotation
					End Site #name: R_Foot
					{
						OFFSET -0.057233 -0.039888 0.132134
					}
				}
			}
		}
	}
	JOINT Pelvis_Spine1
	{
		OFFSET 0.000000 0.000000 0.000000
		CHANNELS 3 Zrotation Yrotation Xrotation
		JOINT Spine1
		{
			OFFSET -0.005562 0.124093 -0.043360
			CHANNELS 3 Zrotation Yrotation Xrotation
			JOINT Spine2
			{
				OFFSET 0.012244 0.139499 0.029894
				CHANNELS 3 Zrotation Yrotation Xrotation
				JOINT Spine3
				{
					OFFSET -0.002556 0.056561 0.009225
					CHANNELS 3 Zrotation Yrotation Xrotation
					JOINT Spine3_Neck
					{
						OFFSET 0.000000 0.000000 0.000000
						CHANNELS 3 Zrotation Yrotation Xrotation
						JOINT Neck
						{
							OFFSET -0.005205 0.217920 -0.024551
							CHANNELS 3 Zrotation Yrotation Xrotation
							End Site #name: Head
							{
								OFFSET 0.002365 0.091850 0.046637
							}
						}
					}
					JOINT Spine3_L_Collar
					{
						OFFSET 0.000000 0.000000 0.000000
						CHANNELS 3 Zrotation Yrotation Xrotation
						JOINT L_Collar
						{
							OFFSET 0.072225 0.116603 -0.009480
							CHANNELS 3 Zrotation Yrotation Xrotation
							JOINT L_Shoulder
							{
								OFFSET 0.115937 -0.058643 -0.021018
								CHANNELS 3 Zrotation Yrotation Xrotation
								JOINT L_Elbow
								{
									OFFSET 0.021994 -0.254722 -0.024492
									CHANNELS 3 Zrotation Yrotation Xrotation
									End Site #name: L_Wrist
									{
										OFFSET 0.048810 -0.240214 0.103329
									}
								}
							}
						}
					}
					JOINT Spine3_R_Collar
					{
						OFFSET 0.000000 0.000000 0.000000
						CHANNELS 3 Zrotation Yrotation Xrotation
						JOINT R_Collar
						{
							OFFSET -0.073372 0.120704 -0.024611
							CHANNELS 3 Zrotation Yrotation Xrotation
							JOINT R_Shoulder
							{
								OFFSET -0.108089 -0.054969 -0.020504
								CHANNELS 3 Zrotation Yrotation Xrotation
								JOINT R_Elbow
								{
									OFFSET -0.033684 -0.260739 0.009889
									CHANNELS 3 Zrotation Yrotation Xrotation
									End Site #name: R_Wrist
									{
										OFFSET -0.067980 -0.232763 0.118463
									}
								}
							}
						}
					}
				}
			}
		}
	}
}
MOTION
Frames: 14
Frame Time: 0.041667
0.000000 0.936717 0.000000 -2.425560 1.052908 -0.616355 0.000000 0.000000 0.000000 -2.791317 1.059336 3.121811 3.981437 -0.410302 1.754315 3.715902 -2.660815 -7.693805 0.000000 0.000000 0.000000 4.370065 -0.744837 2.520185 -2.555629 0.714017 3.724133 -3.031585 7.691817 -11.172504 0.000000 0.000000 0.000000 0.705960 0.376622 -5.531815 4.093185 -0.570904 13.280856 -2.790309 -2.139557 -2.657369 0.000000 0.000000 0.000000 2.499867 -0.936668 -6.333748 0.000000 0.000000 0.000000 -8.675641 0.019483 -1.453151 5.396178 -0.559313 -1.255956 9.231569 3.729838 -1.698020 0.000000 0.000000 0.000000 4.692485 1.596716 -1.614175 -3.645833 -0.047587 -1.092865 -3.244036 -3.617482 8.024887 
0.000016 0.936797 0.000331 -2.442440 1.050008 -0.751358 0.000000 0.000000 0.000000 -2.824170 1.099614 3.260189 4.105663 -0.424567 1.799685 3.725795 -2.708273 -7.731400 0.000000 0.000000 0.000000 4.405105 -0.777571 2.669291 -2.586974 0.720254 3.727169 -3.061407 7.674556 -11.228871 0.000000 0.000000 0.000000 0.585754 0.363015 -5.176193 4.214250 -0.607909 12.912724 -2.846075 -2.121556 -2.451445 0.000000 0.000000 0.000000 2.402700 -0.889730 -6.445740 0.000000 0.000000 0.000000 -8.748984 0.079324 -1.442623 5.607801 -0.577474 -1.248065 9.070229 3.637188 -1.899851 0.000000 0.000000 0.000000 4.588297 1.712451 -1.650790 -3.574915 -0.045145 -1.072404 -3.271450 -3.619373 7.986687 
-0.000046 0.936853 0.000590 -2.464955 1.059899 -0.786482 0.000000 0.000000 0.000000 -2.795140 1.111261 3.316167 4.123580 -0.425429 1.787449 3.714129 -2.747834 -7.728267 0.000000 0.000000 0.000000 4.435133 -0.796351 2.749146 -2.593986 0.718181 3.686758 -3.057099 7.672896 -11.220719 0.000000 0.000000 0.000000 0.550008 0.359732 -5.075604 4.181637 -0.599508 12.826506 -2.867515 -2.119302 -2.436766 0.000000 0.000000 0.000000 2.428411 -0.901250 -6.434597 0.000000 0.000000 0.000000 -8.694454 0.043346 -1.449313 5.788123 -0.592207 -1.232335 8.983238 3.576206 -2.113786 0.000000 0.000000 0.000000 4.533098 1.776612 -1.671169 -3.573974 -0.046707 -1.054876 -3.232969 -3.581815 7.896377 
-0.000151 0.936905 0.000836 -2.489486 1.075819 -0.815188 0.000000 0.000000 0.000000 -2.757470 1.120987 3.368130 4.125387 -0.424498 1.767949 3.706514 -2.778312 -7.727449 0.000000 0.000000 0.000000 4.461943 -0.817996 2.843384 -2.572458 0.706744 3.599277 -3.047301 7.666389 -11.198438 0.000000 0.000000 0.000000 0.520130 0.355127 -4.969084 4.142037 -0.588736 12.723053 -2.890153 -2.121995 -2.438364 0.000000 0.000000 0.000000 2.416934 -0.896438 -6.425864 0.000000 0.000000 0.000000 -8.645958 -0.034111 -1.474350 6.048977 -0.615445 -1.288171 8.941466 3.548170 -2.198030 0.000000 0.000000 0.000000 4.484660 1.851074 -1.697454 -3.588356 -0.047136 -1.056893 -3.191225 -3.537507 7.783628 
-0.000283 0.936928 0.000894 -2.506037 1.076277 -0.801455 0.000000 0.000000 0.000000 -2.718528 1.114389 3.359738 4.101377 -0.421793 1.762042 3.699536 -2.767995 -7.710709 0.000000 0.000000 0.000000 4.478118 -0.821702 2.854366 -2.550940 0.699129 3.556932 -3.036233 7.667098 -11.175495 0.000000 0.000000 0.000000 0.497030 0.349622 -4.868465 4.079470 -0.572670 12.557386 -2.920990 -2.111203 -2.433855 0.000000 0.000000 0.000000 2.374882 -0.878269 -6.418229 0.000000 0.000000 0.000000 -8.573037 -0.097690 -1.489590 6.382634 -0.646257 -1.413964 8.923023 3.535366 -2.229477 0.000000 0.000000 0.000000 4.410417 1.922011 -1.717862 -3.561082 -0.041431 -1.099983 -3.135688 -3.494197 7.698375 
-0.000441 0.936956 0.000858 -2.511918 1.058619 -0.772589 0.000000 0.000000 0.000000 -2.699517 1.104411 3.329714 4.078852 -0.419904 1.763222 3.701949 -2.723296 -7.696169 0.000000 0.000000 0.000000 4.487991 -0.813301 2.809481 -2.540146 0.698853 3.579011 -3.033886 7.679387 -11.173510 0.000000 0.000000 0.000000 0.478126 0.340460 -4.734062 3.982567 -0.546603 12.347671 -2.931770 -2.066175 -2.438050 0.000000 0.000000 0.000000 2.283889 -0.838352 -6.416365 0.000000 0.000000 0.000000 -8.443231 -0.149267 -1.491581 6.701245 -0.677133 -1.594034 8.911895 3.527416 -2.258039 0.000000 0.000000 0.000000 4.321995 2.028203 -1.752124 -3.508451 -0.035977 -1.125003 -3.101370 -3.462791 7.627239 
-0.000611 0.937016 0.000915 -2.520784 1.052902 -0.747209 0.000000 0.000000 0.000000 -2.680980 1.094235 3.298950 4.073384 -0.420367 1.779979 3.707179 -2.695031 -7.692919 0.000000 0.000000 0.000000 4.508153 -0.808617 2.778840 -2.538864 0.700399 3.599794 -3.028997 7.684576 -11.164693 0.000000 0.000000 0.000000 0.430793 0.338860 -4.628577 3.910626 -0.527725 12.197463 -2.903825 -2.002726 -2.449554 0.000000 0.000000 0.000000 2.145335 -0.775704 -6.450632 0.000000 0.000000 0.000000 -8.268924 -0.216505 -1.493747 6.911617 -0.697694 -1.775069 8.905288 3.519683 -2.300236 0.000000 0.000000 0.000000 4.227690 2.159496 -1.796985 -3.486306 -0.036674 -1.102548 -3.051733 -3.405894 7.477851 
-0.000761 0.937116 0.001011 -2.537716 1.043022 -0.693109 0.000000 0.000000 0.000000 -2.663295 1.071421 3.220168 4.077259 -0.424093 1.834315 3.730887 -2.647623 -7.712998 0.000000 0.000000 0.000000 4.537220 -0.797870 2.715042 -2.535923 0.701272 3.616325 -3.013885 7.697494 -11.136505 0.000000 0.000000 0.000000 0.365249 0.345157 -4.575016 3.873896 -0.518647 12.090636 -2.851101 -1.939909 -2.469181 0.000000 0.000000 0.000000 2.009725 -0.712907 -6.520370 0.000000 0.000000 0.000000 -8.199429 -0.264850 -1.504517 7.169047 -0.719784 -1.912309 8.785034 3.459248 -2.352267 0.000000 0.000000 0.000000 4.217051 2.272470 -1.847003 -3.643960 -0.049502 -1.052126 -2.847166 -3.253969 7.204178 
-0.000828 0.937216 0.001018 -2.562187 1.014732 -0.594407 0.000000 0.000000 0.000000 -2.659398 1.033974 3.080376 4.099518 -0.431209 1.917000 3.768170 -2.560237 -7.740071 0.000000 0.000000 0.000000 4.573085 -0.774872 2.588942 -2.538650 0.703486 3.636015 -2.995797 7.719666 -11.103772 0.000000 0.000000 0.000000 0.312338 0.355386 -4.587721 3.850477 -0.512763 11.970065 -2.820634 -1.912087 -2.431589 0.000000 0.000000 0.000000 2.004197 -0.703303 -6.687884 0.000000 0.000000 0.000000 -8.245432 -0.186347 -1.479144 7.604565 -0.758259 -2.102514 8.586962 3.367494 -2.401101 0.000000 0.000000 0.000000 4.325084 2.314486 -1.883960 -4.040239 -0.053182 -1.223851 -2.476826 -3.109554 7.252385 
-0.000817 0.937333 0.001111 -2.581492 0.999678 -0.569478 0.000000 0.000000 0.000000 -2.670519 1.024447 3.039743 4.141928 -0.438255 1.963074 3.767612 -2.514654 -7.719405 0.000000 0.000000 0.000000 4.607783 -0.778497 2.592521 -2.556281 0.702461 3.583290 -2.965834 7.744171 -11.048217 0.000000 0.000000 0.000000 0.271180 0.356881 -4.528008 3.794247 -0.499118 11.755658 -2.845150 -1.945311 -2.316403 0.000000 0.000000 0.000000 2.239974 -0.794534 -6.940221 0.000000 0.000000 0.000000 -8.200707 0.040939 -1.375369 8.176227 -0.808093 -2.453614 8.643568 3.403250 -2.311271 0.000000 0.000000 0.000000 4.440944 2.337074 -1.914332 -4.555636 -0.013423 -1.961369 -2.060844 -3.309784 8.741765 
-0.000918 0.937468 0.001359 -2.616948 0.995659 -0.632368 0.000000 0.000000 0.000000 -2.634858 1.036351 3.099810 4.164480 -0.442459 1.998062 3.738480 -2.496902 -7.660699 0.000000 0.000000 0.000000 4.677226 -0.812798 2.731972 -2.583018 0.698794 3.477852 -2.929282 7.769040 -10.980891 0.000000 0.000000 0.000000 0.245102 0.350645 -4.409482 3.698799 -0.476242 11.509555 -2.868848 -1.987721 -2.230616 0.000000 0.000000 0.000000 2.517474 -0.902946 -7.178909 0.000000 0.000000 0.000000 -7.791778 0.165054 -1.254079 8.741236 -0.855666 -3.066093 9.503655 3.869974 -1.486683 0.000000 0.000000 0.000000 4.294848 2.580212 -2.006275 -4.958557 0.061453 -3.097517 -2.154902 -4.194059 12.187885 
-0.001282 0.937644 0.001582 -2.670159 0.973154 -0.658214 0.000000 0.000000 0.000000 -2.544936 1.028477 3.107187 4.149859 -0.445122 2.061624 3.728387 -2.450997 -7.623291 0.000000 0.000000 0.000000 4.776606 -0.834746 2.799934 -2.575686 0.690634 3.397594 -2.883908 7.804269 -10.896298 0.000000 0.000000 0.000000 0.172044 0.365431 -4.432590 3.630069 -0.458590 11.384485 -2.779959 -1.942059 -2.224951 0.000000 0.000000 0.000000 2.510380 -0.888394 -7.408063 0.000000 0.000000 0.000000 -6.902699 -0.042994 -1.197010 9.515524 -0.909696 -3.988511 10.922824 4.664841 0.547330 0.000000 0.000000 0.000000 3.766281 3.086598 -2.162843 -5.415328 0.111968 -4.079920 -2.979061 -5.460077 16.365582 
-0.001726 0.937832 0.001789 -2.712358 0.943623 -0.654340 0.000000 0.000000 0.000000 -2.455646 1.012678 3.083957 4.130254 -0.447167 2.123528 3.718247 -2.399405 -7.584299 0.000000 0.000000 0.000000 4.868412 -0.844314 2.811200 -2.551943 0.680458 3.327500 -2.817340 7.864302 -10.776832 0.000000 0.000000 0.000000 -0.010501 0.410436 -4.585653 3.668977 -0.468220 11.384442 -2.550728 -1.827457 -2.198773 0.000000 0.000000 0.000000 2.243763 -0.762362 -7.667510 0.000000 0.000000 0.000000 -5.580681 -0.477630 -1.174133 10.941218 -0.982334 -5.092276 12.194856 5.395286 3.339829 0.000000 0.000000 0.000000 2.935171 3.604498 -2.285467 -6.641614 0.074253 -4.849172 -3.960773 -6.562707 20.019268 
-0.001951 0.937969 0.002123 -2.762072 0.922510 -0.709297 0.000000 0.000000 0.000000 -2.386133 1.016578 3.127807 4.152223 -0.451101 2.152677 3.676055 -2.359255 -7.493999 0.000000 0.000000 0.000000 4.967964 -0.863796 2.868153 -2.555089 0.674655 3.250585 -2.740000 7.943551 -10.644462 0.000000 0.000000 0.000000 -0.228540 0.459530 -4.725109 3.840529 -0.513773 11.453093 -2.244201 -1.763420 -2.119758 0.000000 0.000000 0.000000 1.958293 -0.635268 -7.830304 0.000000 0.000000 0.000000 -3.906533 -1.014068 -1.149716 13.180831 -1.066095 -6.064158 12.945686 5.866604 6.152136 0.000000 0.000000 0.000000 1.785698 3.943556 -2.283455 -9.135130 -0.087283 -5.741887 -4.613764 -7.326824 22.851461 
